<svg viewBox="0 0 90 90" height="90" width="90" preserveAspectRatio="xMidYMid meet"  version="1.1" x="0px" y="0px" enableBackground="new 0 0 90 90" xml:space="preserve"><path fill="currentColor" d="M71.109,24.113l-4.288-5.222c-0.594-0.934-1.825-1.528-3.396-1.528H26.575c-1.528,0-2.759,0.594-3.693,1.528 l-3.991,5.222c-0.934,1.231-1.528,2.462-1.528,3.991v38.377c0,3.396,2.759,6.156,6.156,6.156h42.962 c3.396,0,6.156-2.759,6.156-6.156V28.104C72.637,26.575,72.042,25.344,71.109,24.113z M45.042,61.896L28.146,45h10.741v-6.156 h12.269V45h10.741L45.042,61.896z M23.859,23.519l2.462-3.057H63.17l2.759,3.057H23.859z"></path></svg>